<?xml version="1.0" encoding="UTF-8"?>
<svg id="Camada_1" xmlns="http://www.w3.org/2000/svg" baseProfile="tiny" version="1.2" viewBox="0 0 149.09 149.09">
  <!-- Generator: Adobe Illustrator 29.8.3, SVG Export Plug-In . SVG Version: 2.1.1 Build 3)  -->
  <path d="M219.52,109.61c1.04,0,1.75-.33,2.11-.99.13-.25.23-.49.27-.72-.69.56-1.48,1.13-2.38,1.71ZM191.44,37.64c-.63-.43-1.28-.64-1.94-.64h-2.13c1.79.44,3.53,1.05,5.19,1.79-.26-.43-.64-.81-1.12-1.15Z" display="none" fill="#fff"/>
  <path d="M219.52,227.61c1.04,0,1.75-.33,2.11-.99.13-.25.23-.49.27-.72-.69.56-1.48,1.13-2.38,1.71ZM191.44,155.64c-.63-.43-1.28-.64-1.94-.64h-2.13c1.79.44,3.53,1.05,5.19,1.79-.26-.43-.64-.81-1.12-1.15Z" display="none" fill="#fff"/>
  <g>
    <g>
      <path d="M69.98,11.97c4.34,0,7.41.58,7.5,1.55.09,1.1-3.77,2.37-9.08,3.07-.73.1-1.25.76-1.19,1.49.06.65.56,1.18,1.21,1.25,3.11.36,5.62,1.99,6.39,4.28.17.51.64.85,1.18.9,18.74,1.62,33.91,15.76,37.07,34.01,0,.03,0,.05.01.08,0,.06.01.15.04.25.03.19.06.44.11.74.01.1.04.21.05.33.01.01.01.03.01.04.82,4.67,3.93,19.06,12.01,24.77.74.51,1.52.97,2.35,1.33,2.79,1.97,4.75,5.06,5.24,8.63,0,0,0,.05.01.13.01.19.05.57.1,1.08.24,2.44.78,7.95,1.12,10.68.09.62.15,1.08.2,1.34.36,1.83-3.12,20.16-57.18,25.56-6.18.62-11.65.89-16.51.89-37.38,0-38.05-16.24-38.05-17.37v-10.06c0-3.74,1.61-7.07,4.17-9.41l.03-.03c.2-.18.39-.36.59-.53.08-.07.15-.14.22-.22,1.34-1.83,3.8-7.96,3.61-28.32-.01-1.34-.04-2.75-.08-4.22-.01-.33-.01-.65-.03-.99-.1-3.69.5-6.76,1.7-9.27,3.66-12.42,13-22.41,25.02-26.94-.03-.1-.04-.2-.05-.31-.34-2.8,1.9-5.49,5.31-6.72.58-.21.94-.79.89-1.41l-.02-.19c-.06-.71-.66-1.27-1.37-1.27-.02,0-.03,0-.05,0-.67.02-1.33.04-1.96.04-4.34,0-7.42-.58-7.5-1.56-.11-1.31,5.26-2.83,12-3.39,1.74-.15,3.4-.22,4.91-.22M69.98,9.46h0c-1.63,0-3.35.08-5.13.23-3.33.28-11.33,1.21-13.52,3.8-.56.67-.84,1.49-.77,2.31.2,2.42,2.63,3.6,8.03,3.82-1.9,1.54-3.1,3.55-3.33,5.71-11.91,5.07-21.11,15.31-24.82,27.73-1.34,2.9-1.96,6.34-1.85,10.23,0,.18,0,.33.01.48,0,.18,0,.36.01.54.04,1.42.06,2.82.07,4.15.18,20.3-2.34,25.61-3.04,26.69-.13.11-.25.22-.38.34l-.16.15-.05.05-.04.04c-3.19,2.93-4.94,6.91-4.94,11.22v10.06c0,2.04,1.14,19.88,40.56,19.88,5.12,0,10.76-.3,16.76-.9,36.82-3.68,51.07-13.25,56.54-20.64,2.41-3.26,3.17-6.32,2.86-7.91-.03-.17-.07-.47-.13-.87l-.05-.34c-.33-2.65-.87-8.2-1.1-10.57l-.02-.18c-.04-.39-.07-.67-.08-.82v-.04s0-.17,0-.17l-.04-.09c-.57-4.15-2.86-7.92-6.28-10.34l-.21-.15-.23-.1c-.64-.28-1.27-.64-1.93-1.09-7.21-5.1-10.15-18.57-10.93-22.93v-.82l-.17-.17c-.01-.08-.02-.16-.03-.23l-.02-.12v-.4l-.1-.2c-3.45-19.16-19.23-33.74-38.59-35.72-.72-1.56-1.98-2.86-3.61-3.78,6.08-1.39,6.82-3.34,6.68-4.98-.23-2.7-3.22-3.85-10-3.85h0Z" display="none" fill="#fff"/>
      <line x1="76.54" y1="94.32" x2="78.47" y2="116.56" fill="none" stroke="#182541" stroke-miterlimit="10" stroke-width="13.07"/>
      <path d="M125.4,84.8c-8.63,7.36-24.77,18.31-46.94,21.29-28.59,3.86-45.88-6.04-50.81-9.41,1.19-1.7,3.25-6.85,3.53-22.43v-.05c.04-1.78.04-3.7.03-5.76-.01-1.35-.04-2.76-.08-4.22-.01-.31-.01-.61-.03-.94v-.05c.27-3.28.82-6.27,1.59-9.03.03-.09.07-.17.1-.25,2.89-9.83,9.34-18.13,17.87-23.41.34-.21.68-.42,1.03-.61.24-.14.47-.27.71-.41.37-.21.73-.41,1.1-.59.38-.2.74-.38,1.12-.56,1.05-.5,2.1-.94,3.2-1.36,0-.03-.01-.04-.01-.07-.01-.08-.03-.17-.04-.25-.34-2.81,1.89-5.5,5.31-6.73.59-.21.94-.78.89-1.4v-.2c-.08-.73-.71-1.29-1.44-1.27-5.33.2-9.36-.41-9.46-1.52-.1-1.31,5.27-2.82,12-3.4,6.76-.58,12.3.03,12.42,1.33.09,1.11-3.76,2.38-9.07,3.07-.69.1-1.19.68-1.19,1.37v.12c.05.65.56,1.18,1.2,1.25,3.11.35,5.62,1.99,6.39,4.27.18.51.65.86,1.19.9,18.74,1.62,33.9,15.76,37.06,34,0,.03,0,.05.01.08,0,.07.01.16.04.25.03.2.07.44.12.74.01.1.04.21.04.33.01.01.01.03.01.04.82,4.67,3.93,19.05,12.01,24.77.04.03.07.05.1.08Z" fill="#172540"/>
      <g>
        <g>
          <path d="M125.4,84.8c-8.63,7.36-24.77,18.31-46.94,21.29-15.28,2.06-27.33.2-35.98-2.51,3.18-.54,7.23-.43,12.05-.09,14.09.98,37.68-3.76,57.78-16.32-18.35,8.93-44.29,17.58-66.57,6.27-22.28-11.3-6.81-58.2,16.9-64.91,24.26-6.86,43.05,8.72,47.17,20.95,2.9,8.64,4.69,15.53,6.38,20.9.9,2.89.12,6.02-2.06,8.12-2.91,2.78-7.34,5.89-13.94,9.27,6.68-2.31,11.75-4.99,15.8-6.93,1.92-.91,4.23-.5,5.65,1.1,1.03,1.18,2.23,2.1,3.69,2.8" fill="#ec6725"/>
          <path d="M125.4,84.8c-8.63,7.36-24.77,18.31-46.94,21.29-28.59,3.86-45.88-6.04-50.81-9.41,1.19-1.7,3.25-6.85,3.53-22.43v-.05c.04-1.78.04-3.7.03-5.76-.01-1.35-.04-2.76-.08-4.22-.01-.31-.01-.61-.03-.94v-.05c.27-3.28.82-6.27,1.59-9.03.03-.09.07-.17.1-.25,2.89-9.83,9.34-18.13,17.87-23.41.34-.21.68-.42,1.03-.61.24-.14.47-.27.71-.41.37-.21.73-.41,1.1-.59.38-.2.74-.38,1.12-.56,1.05-.5,2.1-.94,3.2-1.36,0-.03-.01-.04-.01-.07-.01-.08-.03-.17-.04-.25-.34-2.81,1.89-5.5,5.31-6.73.59-.21.94-.78.89-1.4v-.2c-.08-.73-.71-1.29-1.44-1.27-5.33.2-9.36-.41-9.46-1.52-.1-1.31,5.27-2.82,12-3.4,6.76-.58,12.3.03,12.42,1.33.09,1.11-3.76,2.38-9.07,3.07-.69.1-1.19.68-1.19,1.37v.12c.05.65.56,1.18,1.2,1.25,3.11.35,5.62,1.99,6.39,4.27.18.51.65.86,1.19.9,18.74,1.62,33.9,15.76,37.06,34,0,.03,0,.05.01.08,0,.07.01.16.04.25.03.2.07.44.12.74.01.1.04.21.04.33.01.01.01.03.01.04.82,4.67,3.93,19.05,12.01,24.77.04.03.07.05.1.08Z" fill="none"/>
        </g>
        <path d="M125.4,84.8c-8.63,7.36-24.77,18.31-46.94,21.29-28.59,3.86-45.88-6.04-50.81-9.41,1.19-1.7,3.25-6.85,3.53-22.43v-.05c.04-1.78.04-3.7.03-5.76-.01-1.35-.04-2.76-.08-4.22-.01-.31-.01-.61-.03-.94v-.05c.27-3.28.82-6.27,1.59-9.03.03-.09.07-.17.1-.25,2.89-9.83,9.34-18.13,17.87-23.41.34-.21.68-.42,1.03-.61.24-.14.47-.27.71-.41.37-.21.73-.41,1.1-.59.38-.2.74-.38,1.12-.56,1.05-.5,2.1-.94,3.2-1.36,0-.03-.01-.04-.01-.07-.01-.08-.03-.17-.04-.25-.34-2.81,1.89-5.5,5.31-6.73.59-.21.94-.78.89-1.4v-.2c-.08-.73-.71-1.29-1.44-1.27-5.33.2-9.36-.41-9.46-1.52-.1-1.31,5.27-2.82,12-3.4,6.76-.58,12.3.03,12.42,1.33.09,1.11-3.76,2.38-9.07,3.07-.69.1-1.19.68-1.19,1.37v.12c.05.65.56,1.18,1.2,1.25,3.11.35,5.62,1.99,6.39,4.27.18.51.65.86,1.19.9,18.74,1.62,33.9,15.76,37.06,34,0,.03,0,.05.01.08,0,.07.01.16.04.25.03.2.07.44.12.74.01.1.04.21.04.33.01.01.01.03.01.04.82,4.67,3.93,19.05,12.01,24.77.04.03.07.05.1.08Z" fill="none" stroke="#182541" stroke-miterlimit="10" stroke-width="1.31"/>
        <path d="M63.42,20.81s2.3-1.55,5.9-.47c3.59,1.08,4.55,3.66,4.55,3.66,0,0-8.91-.18-13.33,1.97,5.65-2.76,2.89-5.16,2.89-5.16Z" fill="#ec6725"/>
        <ellipse cx="65.28" cy="14.2" rx="10.83" ry="1.4" transform="translate(-1 5.79) rotate(-5.04)" fill="#ec6725"/>
        <path d="M75.58,29.58c5.14-.81,10.54.89,14.92,3.85,13.11,9.18,17.82,25.62,21.78,40.32.02.13.16.73.17.88.39,1.94-1.21,3.97-3.27,3.92-2.08.06-3.49-2.04-3.32-3.38-.01-.24-.09-1.02-.12-1.28-1.98-13.99-5.07-29.48-16.2-39.18-3.86-3.21-8.83-5.42-13.96-5.14h0Z" fill="#fff"/>
      </g>
    </g>
    <path d="M11.72,109.49" fill="#ec6725" stroke="#182541" stroke-miterlimit="10" stroke-width="2.61"/>
    <path d="M77.07,138.69c-56.62,5.65-57.5-16.02-57.5-17.37v-10.61c0-3.95,1.69-7.45,4.39-9.92l.03-.03c.21-.19.4-.37.62-.55.08-.08.17-.15.23-.25.01-.03.03-.04.06-.07,5.19,3.55,23.42,13.98,53.56,9.92,23.38-3.14,40.39-14.69,49.49-22.44.76.51,1.54.95,2.37,1.32,2.93,2.08,5,5.35,5.52,9.11,0,0,0,.04.01.12.01.21.06.59.11,1.14.25,2.56.81,8.38,1.17,11.26.1.65.17,1.13.21,1.42.39,1.93-3.28,21.24-60.27,26.95Z" fill="#182541"/>
    <path d="M27.51,111.51c24.21,13.5,67.38,7.01,90.76-6.39,3.93-2.17,7.72-4.63,11.14-7.57-9.98,9.21-22.83,14.94-35.84,18.44-19.59,5.15-48.43,6.83-66.06-4.48h0Z" fill="#ec6725"/>
  </g>
</svg>