<?xml version="1.0" encoding="UTF-8"?>
<svg id="Camada_1" xmlns="http://www.w3.org/2000/svg" baseProfile="tiny" version="1.2" viewBox="0 0 714.13 149.22">
  <!-- Generator: Adobe Illustrator 29.8.3, SVG Export Plug-In . SVG Version: 2.1.1 Build 3)  -->
  <g>
    <path d="M87.64,108.83c-2.18-2.92-4.67-6.13-7.45-9.64-2.78-3.51-5.43-6.92-7.94-10.23-.4-.53-.52-1.07-.35-1.64.16-.56.51-1.04,1.04-1.44,1.59-.99,3.01-2.23,4.27-3.72s2.35-3.17,3.28-5.02c.93-1.85,1.64-3.82,2.14-5.91.49-2.08.74-4.19.74-6.31,0-3.84-.65-7.35-1.94-10.53-1.29-3.17-3.08-5.92-5.36-8.24-2.29-2.32-5.05-4.12-8.29-5.41-3.25-1.3-6.79-1.94-10.63-1.94h-30.89c-.67,0-1.23.23-1.69.69s-.7,1.03-.7,1.69v67.94c0,.67.23,1.23.7,1.69.47.47,1.03.7,1.7.7h14.87c.67,0,1.23-.23,1.7-.7s.7-1.02.7-1.69v-16.09c0-.66.23-1.22.69-1.69.46-.46,1.02-.69,1.68-.69h2.18c.65,0,1.35.18,2.07.55.73.36,1.29.81,1.68,1.34,2.04,2.91,4.1,5.79,6.18,8.64s4.17,5.66,6.28,8.44c.4.53.98.98,1.74,1.34.76.37,1.47.55,2.13.55h18.48c.66,0,1.09-.32,1.29-.95.2-.62.1-1.2-.3-1.73ZM63.01,68.2c-.46.93-1.05,1.71-1.78,2.34-.72.62-1.51,1.09-2.37,1.39-.86.29-1.68.44-2.47.44h-10.48c-.66,0-1.22-.23-1.68-.69-.46-.46-.69-1.03-.69-1.69v-10.53c0-.66.23-1.22.69-1.69.46-.46,1.02-.69,1.68-.69h10.48c1.38,0,2.55.28,3.51.84.95.56,1.71,1.26,2.27,2.09.56.83.96,1.68,1.19,2.58.23.89.34,1.67.34,2.33,0,1.26-.23,2.35-.69,3.28Z" fill="#fff"/>
    <path d="M115.55,57.77c.46-.46,1.03-.69,1.69-.69h30.89c.66,0,1.23-.24,1.69-.7s.7-1.03.7-1.69v-13.51c0-.66-.24-1.22-.7-1.69-.46-.46-1.03-.69-1.69-.69h-50.56c-.66,0-1.22.23-1.69.69-.46.47-.69,1.03-.69,1.69v67.94c0,.67.23,1.23.69,1.69.47.47,1.03.7,1.69.7h50.56c.66,0,1.23-.23,1.69-.7.46-.46.7-1.02.7-1.69v-13.7c0-.66-.24-1.23-.7-1.69-.46-.46-1.03-.7-1.69-.7h-30.89c-.66,0-1.23-.23-1.69-.69-.46-.46-.69-1.03-.69-1.69v-3.78c0-.66.23-1.22.69-1.68.46-.47,1.03-.7,1.69-.7h26.92c.66,0,1.22-.23,1.69-.69.46-.47.69-1.03.69-1.69v-13.71c0-.66-.23-1.23-.69-1.69-.47-.46-1.03-.69-1.69-.69h-26.92c-.66,0-1.23-.24-1.69-.7s-.69-1.03-.69-1.69v-4.17c0-.66.23-1.22.69-1.69Z" fill="#fff"/>
    <path d="M217.91,79.38c-1.69-2.82-3.77-5.1-6.26-6.86-2.48-1.75-5.15-3.08-7.99-3.97-2.85-.9-5.47-1.57-7.85-2.04-.46-.06-1.52-.25-3.18-.54-1.66-.3-3.38-.72-5.16-1.25-1.79-.53-3.38-1.15-4.77-1.88-1.39-.73-2.09-1.56-2.09-2.49s.28-1.65.85-2.18c.56-.53,1.27-.91,2.13-1.14.86-.24,1.77-.37,2.73-.4.96-.03,1.81-.05,2.54-.05,2.45,0,5.13.45,8.04,1.34,2.92.89,6.06,2.4,9.44,4.52.53.4,1.12.53,1.79.4.66-.13,1.19-.47,1.59-1l7.74-11.02c.4-.53.57-1.13.5-1.79-.07-.66-.37-1.22-.89-1.69-4.04-3.11-8.27-5.48-12.67-7.1s-9.39-2.43-14.95-2.43c-3.18,0-6.45.34-9.83,1.04-3.38.69-6.44,1.92-9.19,3.67-2.75,1.76-5.02,4.13-6.8,7.11-1.79,2.98-2.68,6.75-2.68,11.32,0,3.11.47,5.81,1.43,8.1.96,2.28,2.24,4.25,3.83,5.91,1.59,1.65,3.39,3.01,5.41,4.07,2.02,1.06,4.06,1.93,6.11,2.63s4.06,1.23,6.01,1.59c1.95.36,3.66.68,5.12.94,1.52.33,3.01.6,4.47.8,1.45.2,2.73.46,3.82.79,1.09.33,1.97.75,2.63,1.24.66.5,1,1.18,1,2.04,0,1.66-.77,2.9-2.29,3.72-1.52.83-3.74,1.25-6.65,1.25s-6.33-.67-9.84-1.99c-3.51-1.32-7.05-3.14-10.63-5.46-.53-.33-1.12-.43-1.78-.3-.67.13-1.2.46-1.59.99l-7.65,11.03c-.4.53-.56,1.14-.5,1.84.07.69.37,1.24.9,1.63,1.85,1.53,3.89,2.97,6.1,4.33,2.22,1.35,4.62,2.53,7.21,3.52,2.58.99,5.36,1.77,8.34,2.34,2.98.56,6.19.84,9.63.84,4.24,0,8.1-.45,11.58-1.34,3.47-.9,6.45-2.27,8.94-4.12,2.48-1.86,4.42-4.23,5.81-7.11,1.39-2.88,2.08-6.3,2.08-10.28,0-4.23-.84-7.76-2.53-10.57Z" fill="#fff"/>
    <path d="M250.94,57.77c.46-.46,1.02-.69,1.68-.69h30.9c.66,0,1.22-.24,1.68-.7.47-.46.7-1.03.7-1.69v-13.51c0-.66-.23-1.22-.7-1.69-.46-.46-1.02-.69-1.68-.69h-50.56c-.66,0-1.23.23-1.69.69s-.7,1.03-.7,1.69v67.94c0,.67.23,1.23.7,1.69.46.47,1.03.7,1.69.7h50.56c.66,0,1.22-.23,1.68-.7.47-.46.7-1.02.7-1.69v-13.7c0-.66-.23-1.23-.7-1.69-.46-.46-1.02-.7-1.68-.7h-30.9c-.66,0-1.22-.23-1.68-.69-.47-.46-.7-1.03-.7-1.69v-3.78c0-.66.23-1.22.7-1.68.46-.47,1.02-.7,1.68-.7h26.92c.66,0,1.23-.23,1.69-.69.46-.47.7-1.03.7-1.69v-13.71c0-.66-.24-1.23-.7-1.69-.46-.46-1.03-.69-1.69-.69h-26.92c-.66,0-1.22-.24-1.68-.7-.47-.46-.7-1.03-.7-1.69v-4.17c0-.66.23-1.22.7-1.69Z" fill="#fff"/>
    <path d="M362.38,108.83c-2.18-2.92-4.66-6.13-7.45-9.64-2.78-3.51-5.43-6.92-7.94-10.23-.4-.53-.52-1.07-.35-1.64.16-.56.51-1.04,1.04-1.44,1.59-.99,3.02-2.23,4.27-3.72,1.26-1.49,2.35-3.17,3.28-5.02.93-1.85,1.64-3.82,2.14-5.91.49-2.08.74-4.19.74-6.31,0-3.84-.64-7.35-1.93-10.53-1.3-3.17-3.08-5.92-5.37-8.24-2.28-2.32-5.05-4.12-8.29-5.41-3.25-1.3-6.79-1.94-10.63-1.94h-30.89c-.66,0-1.23.23-1.69.69-.46.47-.7,1.03-.7,1.69v67.94c0,.67.24,1.23.7,1.69s1.03.7,1.7.7h14.87c.67,0,1.24-.23,1.7-.7.47-.46.7-1.02.7-1.69v-16.09c0-.66.23-1.22.69-1.69.46-.46,1.02-.69,1.68-.69h2.18c.66,0,1.35.18,2.07.55.73.36,1.29.81,1.68,1.34,2.05,2.91,4.11,5.79,6.18,8.64,2.08,2.85,4.17,5.66,6.28,8.44.4.53.98.98,1.74,1.34.76.37,1.47.55,2.14.55h18.47c.66,0,1.09-.32,1.29-.95.2-.62.1-1.2-.3-1.73ZM337.75,68.2c-.46.93-1.05,1.71-1.78,2.34-.72.62-1.51,1.09-2.37,1.39-.86.29-1.68.44-2.47.44h-10.48c-.66,0-1.22-.23-1.68-.69s-.69-1.03-.69-1.69v-10.53c0-.66.23-1.22.69-1.69.46-.46,1.02-.69,1.68-.69h10.48c1.38,0,2.55.28,3.51.84.96.56,1.71,1.26,2.27,2.09.56.83.96,1.68,1.19,2.58.23.89.35,1.67.35,2.33,0,1.26-.24,2.35-.7,3.28Z" fill="#fff"/>
    <path d="M440.36,39.64c-.33-.56-.86-.84-1.59-.84h-16.49c-.66,0-1.31.22-1.94.64-.63.44-1.11.95-1.44,1.54l-17.38,39.93c-.33.6-.76.9-1.29.9s-.96-.3-1.29-.9l-17.49-39.93c-.33-.59-.81-1.1-1.44-1.54-.63-.42-1.27-.64-1.93-.64h-16.19c-.86,0-1.44.3-1.74.89-.3.6-.28,1.26.05,1.99l30,67.64c.33.6.81,1.11,1.44,1.54.62.43,1.27.65,1.93.65h13.21c.67,0,1.31-.22,1.94-.65.63-.43,1.11-.94,1.44-1.54l17.98-40.35c-.01-.33-.02-.67-.03-1.01,0-.15-.01-.29-.01-.44v-.24s-.01-.53-.01-.53l.02-.25c.23-2.79.71-5.49,1.43-8.06.06-.22.13-.42.2-.59,2-6.59,5.77-12.44,10.86-16.99.08-.39,0-.8-.24-1.22Z" fill="#fff"/>
    <path d="M581.33,93.47c-.48-.43-1.13-.64-1.78-.64h-4.51c-1.39,0-1.66-.59-.8-1.78,1.72-1.99,3.15-4.42,4.27-7.3,1.13-2.88,1.69-5.91,1.69-9.09,0-5.1-.96-9.9-2.88-14.41-1.92-4.5-4.55-8.42-7.89-11.77-3.35-3.34-7.27-5.99-11.78-7.94-4.5-1.95-9.3-2.93-14.4-2.93s-9.88.98-14.35,2.93c-4.47,1.95-8.38,4.6-11.72,7.94-3.35,3.35-5.98,7.27-7.9,11.77-1.51,3.57-2.43,7.31-2.75,11.24-.2,2.5.71,5.03,2.6,6.67.16.14.32.27.48.38.25.17.51.32.79.45l.54.24.49.34c3.52,2.5,5.89,6.39,6.48,10.68v.06s.04.14.04.14v.07l.02.14v.14c.01.08.02.19.03.32l.03.3c.14,1.45.57,5.84.83,7.94.06.4.1.72.13.93.13.79.11,1.65-.04,2.55l.35.94c2.54,1.96,5.45,3.59,8.76,4.9,4.89,1.95,10.69,2.93,17.38,2.93h34.16c.63,0,1.27-.21,1.73-.64.51-.47.76-1.05.76-1.75v-14c0-.69-.25-1.28-.77-1.75ZM559.21,81.41c-.89,2.12-2.13,3.97-3.72,5.56-1.58,1.59-3.41,2.87-5.49,3.83-2.08.96-4.31,1.44-6.69,1.44s-4.6-.48-6.68-1.44-3.92-2.24-5.5-3.83c-1.59-1.59-2.82-3.44-3.72-5.56-.89-2.12-1.33-4.37-1.33-6.75s.44-4.65,1.33-6.81c.9-2.15,2.13-4.03,3.72-5.66,1.58-1.62,3.42-2.89,5.5-3.82s4.3-1.39,6.68-1.39,4.61.46,6.69,1.39c2.08.93,3.91,2.2,5.49,3.82,1.59,1.63,2.83,3.51,3.72,5.66.89,2.16,1.34,4.42,1.34,6.81s-.45,4.63-1.34,6.75Z" fill="#fff"/>
    <path d="M654.22,39.59c-.47-.46-1.03-.69-1.68-.69h-14.93c-.66,0-1.22.23-1.68.69-.46.47-.69,1.03-.69,1.69v40.23c0,2.58-.42,4.72-1.25,6.41-.83,1.69-1.84,3.01-3.04,3.97-1.2.96-2.49,1.64-3.89,2.04-1.4.39-2.66.59-3.79.59s-2.39-.2-3.79-.59c-1.4-.4-2.71-1.08-3.94-2.04-1.23-.96-2.26-2.28-3.09-3.97-.83-1.69-1.25-3.83-1.25-6.41v-40.23c0-.66-.23-1.22-.69-1.69-.46-.46-1.02-.69-1.68-.69h-14.92c-.66,0-1.22.23-1.68.69-.46.47-.69,1.03-.69,1.69v40.23c0,4.7.75,8.97,2.28,12.81,1.52,3.85,3.66,7.12,6.44,9.84,2.78,2.71,6.12,4.82,10.02,6.31s8.23,2.23,12.99,2.23,9.09-.74,12.99-2.23c3.9-1.49,7.24-3.6,10.02-6.31,2.78-2.72,4.91-5.99,6.4-9.84,1.48-3.84,2.23-8.11,2.23-12.81v-40.23c0-.66-.23-1.22-.69-1.69Z" fill="#fff"/>
    <path d="M689.58,39.59c-.46-.46-1.02-.69-1.68-.69h-14.93c-.72,0-1.3.23-1.73.69-.42.47-.64,1.03-.64,1.69v67.84c0,.67.22,1.23.64,1.69.43.47,1.01.7,1.73.7h14.93c.66,0,1.22-.23,1.68-.7.46-.46.69-1.02.69-1.69V41.28c0-.66-.23-1.22-.69-1.69Z" fill="#fff"/>
  </g>
  <g>
    <g>
      <path d="M463.32,26.73c3.32,0,5.67.45,5.74,1.19.07.85-2.88,1.81-6.94,2.35-.56.07-.96.58-.91,1.14.04.5.43.9.92.96,2.38.27,4.3,1.52,4.89,3.27.13.39.49.65.9.69,14.34,1.24,25.95,12.06,28.36,26.02,0,.02,0,.04,0,.06,0,.05,0,.12.03.19.02.14.05.34.09.57,0,.08.03.16.04.25,0,0,0,.02,0,.03.62,3.58,3.01,14.58,9.19,18.95.57.39,1.16.74,1.8,1.02,2.13,1.51,3.63,3.87,4.01,6.6,0,0,0,.04,0,.1,0,.14.04.43.08.83.18,1.86.6,6.08.86,8.17.07.47.12.83.15,1.03.28,1.4-2.38,15.43-43.75,19.56-4.73.47-8.91.68-12.63.68-28.61,0-29.11-12.42-29.11-13.29v-7.7c0-2.86,1.23-5.41,3.19-7.2l.02-.02c.15-.14.3-.27.45-.4.06-.05.12-.11.17-.17,1.03-1.4,2.91-6.09,2.76-21.67,0-1.03-.03-2.11-.06-3.23,0-.25,0-.5-.02-.76-.08-2.83.38-5.17,1.3-7.09,2.8-9.51,9.95-17.15,19.15-20.62-.02-.08-.03-.15-.04-.24-.26-2.15,1.45-4.2,4.07-5.14.44-.16.72-.61.68-1.08v-.15c-.06-.55-.52-.97-1.06-.97-.01,0-.03,0-.04,0-.52.02-1.02.03-1.5.03-3.32,0-5.68-.44-5.74-1.19-.09-1,4.03-2.16,9.18-2.6,1.33-.11,2.6-.17,3.76-.17M463.32,24.81h0c-1.25,0-2.57.06-3.92.18-2.55.21-8.67.93-10.34,2.91-.43.51-.64,1.14-.59,1.77.15,1.85,2.01,2.75,6.14,2.92-1.46,1.18-2.37,2.72-2.55,4.37-9.11,3.88-16.15,11.71-18.99,21.22-1.02,2.22-1.5,4.85-1.42,7.83,0,.14,0,.25,0,.36,0,.14,0,.28.01.42.03,1.09.05,2.16.06,3.17.14,15.54-1.79,19.6-2.33,20.42-.1.09-.19.17-.29.26l-.12.11-.04.04-.03.03c-2.44,2.24-3.78,5.29-3.78,8.59v7.7c0,1.56.87,15.21,31.04,15.21,3.92,0,8.23-.23,12.82-.69,28.17-2.81,39.08-10.14,43.26-15.79,1.85-2.49,2.43-4.84,2.19-6.06-.02-.13-.06-.36-.1-.67l-.04-.26c-.25-2.03-.67-6.27-.85-8.09v-.14c-.04-.29-.06-.51-.07-.63v-.03s0-.13,0-.13l-.03-.07c-.44-3.18-2.19-6.06-4.8-7.91l-.16-.11-.18-.08c-.49-.22-.97-.49-1.47-.84-5.52-3.9-7.77-14.21-8.36-17.54v-.63l-.13-.13c0-.06-.02-.12-.02-.17v-.09s-.01-.3-.01-.3l-.08-.15c-2.64-14.66-14.71-25.82-29.52-27.34-.55-1.19-1.51-2.19-2.76-2.9,4.65-1.07,5.22-2.56,5.11-3.81-.18-2.07-2.47-2.95-7.65-2.95h0Z" display="none" fill="#fff"/>
      <line x1="468.34" y1="89.74" x2="469.81" y2="106.76" fill="none" stroke="#182541" stroke-miterlimit="10" stroke-width="10"/>
      <path d="M505.73,82.45c-6.6,5.63-18.95,14.01-35.92,16.29-21.88,2.95-35.11-4.62-38.88-7.2.91-1.3,2.49-5.24,2.7-17.16v-.04c.03-1.36.03-2.83.02-4.41-.01-1.03-.03-2.11-.06-3.23-.01-.24-.01-.47-.02-.72v-.04c.21-2.51.63-4.8,1.22-6.91.02-.07.05-.13.08-.19,2.21-7.52,7.15-13.87,13.67-17.91.26-.16.52-.32.79-.47.18-.11.36-.21.54-.31.28-.16.56-.31.84-.45.29-.15.57-.29.86-.43.8-.38,1.61-.72,2.45-1.04,0-.02-.01-.03-.01-.05-.01-.06-.02-.13-.03-.19-.26-2.15,1.45-4.21,4.06-5.15.45-.16.72-.6.68-1.07v-.15c-.06-.56-.54-.99-1.1-.97-4.08.15-7.16-.31-7.24-1.16-.08-1,4.03-2.16,9.18-2.6,5.17-.44,9.41.02,9.5,1.02.07.85-2.88,1.82-6.94,2.35-.53.08-.91.52-.91,1.05v.09c.04.5.43.9.92.96,2.38.27,4.3,1.52,4.89,3.27.14.39.5.66.91.69,14.34,1.24,25.94,12.06,28.36,26.02,0,.02,0,.04.01.06,0,.05,0,.12.03.19.02.15.05.34.09.57,0,.08.03.16.03.25.01.01.01.02.01.03.63,3.57,3.01,14.58,9.19,18.95.03.02.05.04.08.06Z" fill="#172540"/>
      <g>
        <g>
          <path d="M505.73,82.45c-6.6,5.63-18.95,14.01-35.92,16.29-11.69,1.58-20.91.15-27.53-1.92,2.43-.41,5.53-.33,9.22-.07,10.78.75,28.83-2.88,44.21-12.49-14.04,6.83-33.89,13.45-50.94,4.8-17.05-8.65-5.21-44.53,12.93-49.67,18.56-5.25,32.94,6.67,36.09,16.03,2.22,6.61,3.59,11.88,4.88,15.99.69,2.21.09,4.61-1.58,6.21-2.23,2.13-5.62,4.51-10.67,7.09,5.11-1.77,8.99-3.82,12.09-5.3,1.47-.7,3.24-.38,4.32.84.79.9,1.71,1.61,2.82,2.14" fill="#ec6725"/>
          <path d="M505.73,82.45c-6.6,5.63-18.95,14.01-35.92,16.29-21.88,2.95-35.11-4.62-38.88-7.2.91-1.3,2.49-5.24,2.7-17.16v-.04c.03-1.36.03-2.83.02-4.41-.01-1.03-.03-2.11-.06-3.23-.01-.24-.01-.47-.02-.72v-.04c.21-2.51.63-4.8,1.22-6.91.02-.07.05-.13.08-.19,2.21-7.52,7.15-13.87,13.67-17.91.26-.16.52-.32.79-.47.18-.11.36-.21.54-.31.28-.16.56-.31.84-.45.29-.15.57-.29.86-.43.8-.38,1.61-.72,2.45-1.04,0-.02-.01-.03-.01-.05-.01-.06-.02-.13-.03-.19-.26-2.15,1.45-4.21,4.06-5.15.45-.16.72-.6.68-1.07v-.15c-.06-.56-.54-.99-1.1-.97-4.08.15-7.16-.31-7.24-1.16-.08-1,4.03-2.16,9.18-2.6,5.17-.44,9.41.02,9.5,1.02.07.85-2.88,1.82-6.94,2.35-.53.08-.91.52-.91,1.05v.09c.04.5.43.9.92.96,2.38.27,4.3,1.52,4.89,3.27.14.39.5.66.91.69,14.34,1.24,25.94,12.06,28.36,26.02,0,.02,0,.04.01.06,0,.05,0,.12.03.19.02.15.05.34.09.57,0,.08.03.16.03.25.01.01.01.02.01.03.63,3.57,3.01,14.58,9.19,18.95.03.02.05.04.08.06Z" fill="none"/>
        </g>
        <path d="M505.73,82.45c-6.6,5.63-18.95,14.01-35.92,16.29-21.88,2.95-35.11-4.62-38.88-7.2.91-1.3,2.49-5.24,2.7-17.16v-.04c.03-1.36.03-2.83.02-4.41-.01-1.03-.03-2.11-.06-3.23-.01-.24-.01-.47-.02-.72v-.04c.21-2.51.63-4.8,1.22-6.91.02-.07.05-.13.08-.19,2.21-7.52,7.15-13.87,13.67-17.91.26-.16.52-.32.79-.47.18-.11.36-.21.54-.31.28-.16.56-.31.84-.45.29-.15.57-.29.86-.43.8-.38,1.61-.72,2.45-1.04,0-.02-.01-.03-.01-.05-.01-.06-.02-.13-.03-.19-.26-2.15,1.45-4.21,4.06-5.15.45-.16.72-.6.68-1.07v-.15c-.06-.56-.54-.99-1.1-.97-4.08.15-7.16-.31-7.24-1.16-.08-1,4.03-2.16,9.18-2.6,5.17-.44,9.41.02,9.5,1.02.07.85-2.88,1.82-6.94,2.35-.53.08-.91.52-.91,1.05v.09c.04.5.43.9.92.96,2.38.27,4.3,1.52,4.89,3.27.14.39.5.66.91.69,14.34,1.24,25.94,12.06,28.36,26.02,0,.02,0,.04.01.06,0,.05,0,.12.03.19.02.15.05.34.09.57,0,.08.03.16.03.25.01.01.01.02.01.03.63,3.57,3.01,14.58,9.19,18.95.03.02.05.04.08.06Z" fill="none" stroke="#182541" stroke-miterlimit="10"/>
        <path d="M458.3,33.49s1.76-1.19,4.51-.36,3.48,2.8,3.48,2.8c0,0-6.82-.14-10.2,1.5,4.33-2.12,2.21-3.95,2.21-3.95Z" fill="#ec6725"/>
        <ellipse cx="459.72" cy="28.44" rx="8.29" ry="1.07" transform="translate(-.72 40.51) rotate(-5.04)" fill="#ec6725"/>
        <path d="M467.6,40.2c3.94-.62,8.07.68,11.42,2.95,10.03,7.02,13.64,19.61,16.67,30.86.01.1.12.56.13.67.3,1.48-.93,3.04-2.51,3-1.59.05-2.67-1.56-2.54-2.58,0-.19-.07-.78-.09-.98-1.52-10.71-3.88-22.56-12.4-29.98-2.95-2.46-6.76-4.15-10.68-3.93h0Z" fill="#fff"/>
      </g>
    </g>
    <path d="M418.74,101.35" fill="#ec6725" stroke="#182541" stroke-miterlimit="10" stroke-width="2"/>
    <path d="M468.74,123.69c-43.33,4.32-44-12.26-44-13.29v-8.12c0-3.03,1.3-5.7,3.36-7.59l.02-.02c.16-.15.31-.28.47-.42.06-.06.13-.12.18-.19.01-.02.02-.03.04-.05,3.97,2.72,17.92,10.7,40.99,7.59,17.89-2.4,30.91-11.24,37.87-17.17.58.39,1.18.73,1.81,1.01,2.25,1.59,3.83,4.09,4.23,6.97,0,0,0,.03.01.09.01.16.04.45.08.87.19,1.96.62,6.41.9,8.61.07.5.13.86.16,1.09.3,1.48-2.51,16.26-46.12,20.62Z" fill="#182541"/>
    <path d="M430.82,102.89c18.64,10.33,51.46,5.38,69.45-4.89,3.01-1.66,5.91-3.54,8.52-5.79-5.04,4.74-11.22,8.16-17.58,10.82-16.8,6.94-44.45,9.95-60.4-.14h0Z" fill="#ec6725"/>
  </g>
</svg>