<?xml version="1.0" encoding="UTF-8"?>
<svg id="Camada_1" xmlns="http://www.w3.org/2000/svg" baseProfile="tiny" version="1.2" viewBox="0 0 714.13 149.22">
  <!-- Generator: Adobe Illustrator 29.8.3, SVG Export Plug-In . SVG Version: 2.1.1 Build 3)  -->
  <g>
    <g>
      <path d="M68.17,111.27c-.63,0-1.31-.18-2.02-.53-.72-.34-1.28-.77-1.65-1.27-2.07-2.73-4.18-5.56-6.28-8.44-2.05-2.81-4.13-5.72-6.18-8.64-.42-.57-1.01-1.04-1.77-1.42-.74-.38-1.48-.57-2.18-.57h-2.18c-.72,0-1.35.26-1.85.76-.5.52-.76,1.14-.76,1.86v16.09c0,.6-.21,1.1-.63,1.52-.42.42-.92.63-1.53.63h-14.87c-.61,0-1.11-.21-1.53-.63-.42-.42-.63-.91-.63-1.52V41.18c0-.6.21-1.1.63-1.52.42-.42.91-.62,1.52-.62h30.89c3.8,0,7.35.65,10.54,1.92,3.19,1.27,5.96,3.07,8.21,5.36,2.25,2.29,4.04,5.04,5.31,8.16,1.28,3.15,1.92,6.66,1.92,10.44,0,2.08-.25,4.19-.73,6.25-.5,2.07-1.21,4.04-2.12,5.86-.93,1.85-2.02,3.52-3.25,4.97-1.24,1.47-2.66,2.7-4.21,3.67-.59.45-.97.97-1.14,1.58-.19.63-.06,1.26.39,1.85,2.44,3.22,5.04,6.56,7.94,10.23,2.97,3.75,5.4,6.9,7.45,9.63.35.47.44.96.26,1.51-.17.53-.51.78-1.06.78h-18.48ZM45.91,56.84c-.72,0-1.35.26-1.85.76-.5.52-.76,1.14-.76,1.86v10.53c0,.73.26,1.36.76,1.86.5.5,1.13.76,1.85.76h10.48c.81,0,1.64-.15,2.55-.45.87-.3,1.7-.79,2.45-1.44.75-.64,1.36-1.46,1.84-2.42s.71-2.1.71-3.39c0-.69-.12-1.5-.35-2.39-.23-.91-.63-1.78-1.22-2.65-.58-.86-1.37-1.59-2.35-2.16-.99-.58-2.21-.87-3.63-.87h-10.48Z" fill="#172540"/>
      <path d="M57.15,39.28c3.77,0,7.29.64,10.45,1.91,3.16,1.26,5.9,3.04,8.12,5.3,2.23,2.27,4,4.99,5.26,8.08,1.26,3.12,1.9,6.6,1.9,10.35,0,2.07-.24,4.15-.73,6.2-.49,2.06-1.2,4.01-2.1,5.81-.92,1.83-2,3.49-3.22,4.93-1.23,1.45-2.62,2.67-4.19,3.65-.62.47-1.02,1.03-1.21,1.69-.21.71-.07,1.41.43,2.07,2.43,3.2,5.1,6.64,7.95,10.24,2.96,3.74,5.4,6.89,7.44,9.63.3.4.38.82.23,1.3-.14.43-.39.61-.83.61h-18.48c-.59,0-1.24-.17-1.92-.5-.68-.32-1.21-.72-1.56-1.2-2.07-2.73-4.19-5.57-6.27-8.43-2.07-2.83-4.15-5.74-6.18-8.64-.44-.6-1.06-1.1-1.85-1.48-.78-.4-1.55-.6-2.29-.6h-2.18c-.79,0-1.47.28-2.02.83-.55.56-.83,1.24-.83,2.03v16.09c0,.53-.18.97-.56,1.35-.38.38-.81.56-1.36.56h-14.87c-.55,0-.98-.18-1.36-.56-.37-.37-.56-.81-.56-1.35V41.18c0-.53.18-.97.56-1.35.37-.37.81-.55,1.35-.55h30.89M45.91,72.85h10.48c.84,0,1.7-.15,2.63-.47.9-.31,1.75-.81,2.53-1.48.77-.66,1.41-1.5,1.9-2.49.49-.99.74-2.17.74-3.49,0-.71-.12-1.54-.35-2.45-.24-.94-.65-1.83-1.26-2.73-.6-.89-1.41-1.64-2.43-2.24-1.03-.6-2.29-.91-3.75-.91h-10.48c-.79,0-1.47.28-2.02.83-.55.56-.83,1.24-.83,2.03v10.53c0,.8.28,1.48.83,2.03.55.55,1.23.83,2.02.83M57.15,38.8h-30.89c-.67,0-1.23.23-1.69.69-.47.47-.7,1.03-.7,1.69v67.94c0,.67.23,1.23.7,1.69.47.47,1.03.7,1.7.7h14.87c.67,0,1.23-.23,1.7-.7s.7-1.02.7-1.69v-16.09c0-.66.23-1.22.69-1.69.46-.46,1.02-.69,1.68-.69h2.18c.65,0,1.35.18,2.07.55.73.36,1.29.81,1.68,1.34,2.04,2.91,4.1,5.79,6.18,8.64,2.08,2.85,4.17,5.66,6.28,8.44.4.53.98.98,1.74,1.34.76.37,1.47.55,2.13.55h18.48c.66,0,1.09-.32,1.29-.95.2-.62.1-1.2-.3-1.73-2.18-2.92-4.67-6.13-7.45-9.64-2.78-3.51-5.43-6.92-7.94-10.23-.4-.53-.52-1.07-.35-1.64.16-.56.51-1.04,1.04-1.44,1.59-.99,3.01-2.23,4.27-3.72s2.35-3.17,3.28-5.02c.93-1.85,1.64-3.82,2.14-5.91.49-2.08.74-4.19.74-6.31,0-3.84-.65-7.35-1.94-10.53-1.29-3.17-3.08-5.92-5.36-8.24-2.29-2.32-5.05-4.12-8.29-5.41-3.25-1.3-6.79-1.94-10.63-1.94h0ZM45.91,72.37c-.66,0-1.22-.23-1.68-.69-.46-.46-.69-1.03-.69-1.69v-10.53c0-.66.23-1.22.69-1.69.46-.46,1.02-.69,1.68-.69h10.48c1.38,0,2.55.28,3.51.84.95.56,1.71,1.26,2.27,2.09.56.83.96,1.68,1.19,2.58.23.89.34,1.67.34,2.33,0,1.26-.23,2.35-.69,3.28-.46.93-1.05,1.71-1.78,2.34-.72.62-1.51,1.09-2.37,1.39-.86.29-1.68.44-2.47.44h-10.48Z" fill="#182541"/>
    </g>
    <g>
      <path d="M97.56,111.27c-.6,0-1.1-.21-1.52-.63-.42-.42-.62-.92-.62-1.52V41.18c0-.6.2-1.09.62-1.52.42-.41.92-.62,1.52-.62h50.56c.6,0,1.11.21,1.52.62.42.43.63.93.63,1.52v13.51c0,.59-.21,1.1-.63,1.52s-.93.63-1.52.63h-30.89c-.73,0-1.36.26-1.86.76-.51.52-.76,1.14-.76,1.86v4.17c0,.73.26,1.35.76,1.86.51.51,1.14.77,1.86.77h26.92c.6,0,1.09.2,1.52.62.41.41.62.92.62,1.52v13.71c0,.6-.2,1.09-.62,1.52-.42.41-.92.62-1.52.62h-26.92c-.73,0-1.36.26-1.86.77-.5.5-.76,1.12-.76,1.85v3.78c0,.73.26,1.35.76,1.86.5.5,1.13.76,1.86.76h30.89c.59,0,1.1.21,1.52.63s.63.93.63,1.52v13.7c0,.6-.21,1.1-.63,1.52-.41.42-.92.63-1.52.63h-50.56Z" fill="#172540"/>
      <path d="M148.13,39.28c.54,0,.98.18,1.35.55.38.39.56.83.56,1.35v13.51c0,.52-.19.98-.56,1.35s-.83.56-1.35.56h-30.89c-.8,0-1.48.28-2.03.83-.55.56-.83,1.24-.83,2.03v4.17c0,.8.28,1.48.83,2.03.55.55,1.25.84,2.03.84h26.92c.53,0,.97.18,1.35.55.37.37.55.81.55,1.35v13.71c0,.53-.18.97-.55,1.35-.38.37-.82.55-1.35.55h-26.92c-.8,0-1.49.28-2.03.84-.55.55-.83,1.23-.83,2.02v3.78c0,.8.28,1.48.83,2.03.55.55,1.23.83,2.03.83h30.89c.52,0,.98.19,1.35.56.37.37.56.83.56,1.35v13.7c0,.53-.18.97-.56,1.35-.37.37-.81.56-1.35.56h-50.56c-.53,0-.97-.18-1.35-.56-.37-.37-.55-.81-.55-1.35V41.18c0-.53.18-.97.55-1.35.38-.37.82-.55,1.35-.55h50.56M148.13,38.8h-50.56c-.66,0-1.22.23-1.69.69-.46.47-.69,1.03-.69,1.69v67.94c0,.67.23,1.23.69,1.69.47.47,1.03.7,1.69.7h50.56c.66,0,1.23-.23,1.69-.7.46-.46.7-1.02.7-1.69v-13.7c0-.66-.24-1.23-.7-1.69-.46-.46-1.03-.7-1.69-.7h-30.89c-.66,0-1.23-.23-1.69-.69-.46-.46-.69-1.03-.69-1.69v-3.78c0-.66.23-1.22.69-1.68.46-.47,1.03-.7,1.69-.7h26.92c.66,0,1.22-.23,1.69-.69.46-.47.69-1.03.69-1.69v-13.71c0-.66-.23-1.23-.69-1.69-.47-.46-1.03-.69-1.69-.69h-26.92c-.66,0-1.23-.24-1.69-.7s-.69-1.03-.69-1.69v-4.17c0-.66.23-1.22.69-1.69.46-.46,1.03-.69,1.69-.69h30.89c.66,0,1.23-.24,1.69-.7.46-.46.7-1.03.7-1.69v-13.51c0-.66-.24-1.22-.7-1.69-.46-.46-1.03-.69-1.69-.69h0Z" fill="#182541"/>
    </g>
    <g>
      <path d="M192.02,112.56c-3.41,0-6.63-.28-9.59-.84-2.95-.56-5.75-1.35-8.3-2.33-2.53-.97-4.94-2.14-7.17-3.5-2.23-1.37-4.27-2.82-6.07-4.31-.48-.35-.75-.85-.81-1.47-.05-.65.09-1.19.45-1.67l7.66-11.04c.35-.48.82-.77,1.44-.89.17-.03.34-.05.5-.05.4,0,.77.1,1.11.32,3.58,2.32,7.17,4.16,10.67,5.48,3.54,1.33,6.88,2,9.92,2s5.21-.43,6.77-1.28c1.6-.86,2.41-2.19,2.41-3.93,0-.93-.37-1.68-1.09-2.23-.69-.52-1.6-.94-2.71-1.28-1.07-.32-2.37-.59-3.86-.8-1.41-.19-2.9-.46-4.45-.8-1.11-.2-2.36-.43-3.75-.69l-1.38-.25c-1.95-.36-3.96-.89-5.98-1.58-2.07-.71-4.12-1.59-6.08-2.62-1.97-1.04-3.77-2.39-5.35-4.02-1.57-1.64-2.84-3.6-3.78-5.84-.94-2.23-1.41-4.93-1.41-8.01,0-4.51.89-8.27,2.65-11.2,1.75-2.93,4.01-5.3,6.72-7.03,2.73-1.74,5.79-2.96,9.11-3.64,3.32-.69,6.61-1.03,9.78-1.03,5.51,0,10.51.81,14.87,2.42,4.36,1.61,8.6,3.98,12.61,7.06.47.42.73.93.8,1.52.06.59-.09,1.14-.45,1.62l-7.75,11.03c-.36.48-.85.79-1.44.9-.15.03-.3.04-.44.04-.42,0-.8-.13-1.16-.4-3.41-2.14-6.61-3.67-9.51-4.56-2.93-.9-5.66-1.35-8.11-1.35-.73,0-1.58.02-2.55.05-.99.03-1.92.17-2.79.41-.89.24-1.64.64-2.23,1.2-.61.57-.93,1.36-.93,2.35s.75,1.93,2.22,2.7c1.39.73,2.96,1.35,4.81,1.9,1.81.54,3.55.96,5.19,1.26l.8.14c1.21.21,2,.35,2.39.4,2.44.48,5.07,1.17,7.81,2.03,2.8.88,5.46,2.2,7.92,3.94,2.45,1.73,4.53,4.01,6.19,6.79,1.66,2.75,2.5,6.27,2.5,10.45,0,3.93-.69,7.35-2.06,10.18-1.36,2.83-3.29,5.19-5.74,7.02-2.45,1.82-5.43,3.19-8.86,4.08-3.46.88-7.33,1.33-11.52,1.33Z" fill="#172540"/>
      <path d="M189.45,38.29c5.48,0,10.46.81,14.78,2.4,4.34,1.6,8.56,3.96,12.51,7.01.44.4.68.85.73,1.38.06.54-.08,1.01-.42,1.46l-7.73,11.01c-.34.44-.76.71-1.3.82-.14.03-.27.04-.39.04-.37,0-.7-.12-1.05-.38-3.42-2.14-6.63-3.68-9.55-4.57-2.95-.9-5.71-1.36-8.18-1.36-.66,0-1.44.02-2.56.05-1.01.03-1.96.17-2.84.42-.93.25-1.72.67-2.33,1.25-.67.62-1,1.47-1,2.53,0,1.12.79,2.1,2.35,2.92,1.4.74,2.99,1.36,4.86,1.92,1.82.54,3.57.97,5.21,1.26l.8.14c1.21.21,2.01.35,2.37.4,2.44.48,5.07,1.16,7.8,2.03,2.77.87,5.42,2.18,7.86,3.9,2.42,1.71,4.48,3.97,6.13,6.72,1.63,2.72,2.46,6.19,2.46,10.32,0,3.89-.68,7.28-2.03,10.07-1.35,2.79-3.25,5.13-5.66,6.93-2.42,1.8-5.37,3.16-8.77,4.04-3.44.88-7.29,1.33-11.46,1.33-3.39,0-6.6-.28-9.54-.83-2.94-.56-5.72-1.34-8.26-2.32-2.51-.96-4.91-2.13-7.13-3.48-2.22-1.37-4.26-2.81-6.07-4.31-.42-.31-.65-.73-.71-1.28-.05-.59.08-1.08.42-1.53l7.64-11.02c.32-.43.74-.7,1.3-.8.16-.03.31-.05.45-.05.36,0,.68.09.98.28,3.6,2.33,7.2,4.18,10.72,5.51,3.57,1.34,6.93,2.02,10.01,2.02s5.29-.44,6.88-1.31c1.69-.91,2.54-2.3,2.54-4.14,0-1.01-.4-1.82-1.19-2.43-.71-.53-1.65-.97-2.78-1.31-1.08-.33-2.39-.6-3.89-.81-1.4-.19-2.89-.46-4.45-.8-1.1-.2-2.34-.43-3.72-.68l-1.39-.26c-1.93-.36-3.93-.89-5.94-1.57-2.06-.7-4.1-1.58-6.04-2.6-1.95-1.02-3.73-2.36-5.29-3.98-1.55-1.62-2.8-3.56-3.73-5.76-.92-2.2-1.39-4.87-1.39-7.91,0-4.46.88-8.19,2.61-11.07,1.73-2.9,3.97-5.24,6.65-6.95,2.7-1.72,5.74-2.93,9.03-3.6,3.3-.68,6.57-1.03,9.73-1.03M189.45,37.81c-3.18,0-6.45.34-9.83,1.04-3.38.69-6.44,1.92-9.19,3.67-2.75,1.76-5.02,4.13-6.8,7.11-1.79,2.98-2.68,6.75-2.68,11.32,0,3.11.47,5.81,1.43,8.1.96,2.28,2.24,4.25,3.83,5.91,1.59,1.65,3.39,3.01,5.41,4.07,2.02,1.06,4.06,1.93,6.11,2.63s4.06,1.23,6.01,1.59c1.95.36,3.66.68,5.12.94,1.52.33,3.01.6,4.47.8,1.45.2,2.73.46,3.82.79,1.09.33,1.97.75,2.63,1.24.66.5,1,1.18,1,2.04,0,1.66-.77,2.9-2.29,3.72-1.52.83-3.74,1.25-6.65,1.25s-6.33-.67-9.84-1.99c-3.51-1.32-7.05-3.14-10.63-5.46-.38-.24-.79-.36-1.24-.36-.18,0-.36.02-.54.06-.67.13-1.2.46-1.59.99l-7.65,11.03c-.4.53-.56,1.14-.5,1.84.07.69.37,1.24.9,1.63,1.85,1.53,3.89,2.97,6.1,4.33,2.22,1.35,4.62,2.53,7.21,3.52,2.58.99,5.36,1.77,8.34,2.34,2.98.56,6.19.84,9.63.84,4.24,0,8.1-.45,11.58-1.34,3.47-.9,6.45-2.27,8.94-4.12,2.48-1.86,4.42-4.23,5.81-7.11,1.39-2.88,2.08-6.3,2.08-10.28,0-4.23-.84-7.76-2.53-10.57-1.69-2.82-3.77-5.1-6.26-6.86-2.48-1.75-5.15-3.08-7.99-3.97-2.85-.9-5.47-1.57-7.85-2.04-.46-.06-1.52-.25-3.18-.54-1.66-.3-3.38-.72-5.16-1.25-1.79-.53-3.38-1.15-4.77-1.88-1.39-.73-2.09-1.56-2.09-2.49s.28-1.65.85-2.18c.56-.53,1.27-.91,2.13-1.14.86-.24,1.77-.37,2.73-.4.96-.03,1.81-.05,2.54-.05,2.45,0,5.13.45,8.04,1.34,2.92.89,6.06,2.4,9.44,4.52.4.3.83.45,1.3.45.16,0,.32-.02.49-.05.66-.13,1.19-.47,1.59-1l7.74-11.02c.4-.53.57-1.13.5-1.79-.07-.66-.37-1.22-.89-1.69-4.04-3.11-8.27-5.48-12.67-7.1-4.4-1.62-9.39-2.43-14.95-2.43h0Z" fill="#182541"/>
    </g>
    <g>
      <path d="M232.96,111.27c-.6,0-1.11-.21-1.52-.63-.43-.42-.63-.91-.63-1.52V41.18c0-.6.21-1.1.63-1.52.41-.41.92-.62,1.52-.62h50.56c.6,0,1.09.2,1.51.62.42.42.63.92.63,1.52v13.51c0,.6-.21,1.11-.63,1.52-.42.42-.93.63-1.51.63h-30.9c-.72,0-1.35.26-1.85.76-.51.51-.77,1.14-.77,1.86v4.17c0,.73.26,1.36.77,1.86.51.51,1.13.77,1.85.77h26.92c.6,0,1.11.21,1.52.62s.63.93.63,1.52v13.71c0,.59-.21,1.09-.63,1.52-.41.41-.92.62-1.52.62h-26.92c-.73,0-1.35.26-1.85.77-.51.5-.77,1.12-.77,1.85v3.78c0,.73.26,1.36.77,1.86.5.5,1.12.76,1.85.76h30.9c.58,0,1.09.21,1.51.63.42.41.63.92.63,1.52v13.7c0,.61-.21,1.1-.63,1.52-.42.43-.91.63-1.51.63h-50.56Z" fill="#172540"/>
      <path d="M283.52,39.28c.53,0,.97.18,1.34.55.38.38.56.82.56,1.35v13.51c0,.54-.18.98-.56,1.35-.38.38-.81.56-1.34.56h-30.9c-.79,0-1.47.28-2.02.83-.56.56-.84,1.24-.84,2.03v4.17c0,.8.28,1.49.84,2.03.56.56,1.24.84,2.02.84h26.92c.54,0,.98.18,1.35.55.37.37.56.83.56,1.35v13.71c0,.52-.18.97-.56,1.35-.37.37-.81.55-1.35.55h-26.92c-.79,0-1.48.28-2.02.84-.56.55-.84,1.23-.84,2.02v3.78c0,.8.28,1.49.84,2.03.55.55,1.23.83,2.02.83h30.9c.53,0,.96.18,1.34.56.37.37.56.81.56,1.35v13.7c0,.54-.18.98-.56,1.35-.37.37-.8.56-1.34.56h-50.56c-.54,0-.98-.18-1.35-.56-.37-.37-.56-.81-.56-1.35V41.18c0-.53.18-.97.56-1.35.37-.37.81-.55,1.35-.55h50.56M283.52,38.8h-50.56c-.66,0-1.23.23-1.69.69-.47.47-.7,1.03-.7,1.69v67.94c0,.67.23,1.23.7,1.69.46.47,1.03.7,1.69.7h50.56c.66,0,1.22-.23,1.68-.7.47-.46.7-1.02.7-1.69v-13.7c0-.66-.23-1.23-.7-1.69-.46-.46-1.02-.7-1.68-.7h-30.9c-.66,0-1.22-.23-1.68-.69-.47-.46-.7-1.03-.7-1.69v-3.78c0-.66.23-1.22.7-1.68.46-.47,1.02-.7,1.68-.7h26.92c.66,0,1.23-.23,1.69-.69.46-.47.7-1.03.7-1.69v-13.71c0-.66-.24-1.23-.7-1.69-.46-.46-1.03-.69-1.69-.69h-26.92c-.66,0-1.22-.24-1.68-.7-.47-.46-.7-1.03-.7-1.69v-4.17c0-.66.23-1.22.7-1.69.46-.46,1.02-.69,1.68-.69h30.9c.66,0,1.22-.24,1.68-.7.47-.46.7-1.03.7-1.69v-13.51c0-.66-.23-1.22-.7-1.69-.46-.46-1.02-.69-1.68-.69h0Z" fill="#182541"/>
    </g>
    <g>
      <path d="M342.92,111.27c-.63,0-1.32-.18-2.04-.53-.72-.34-1.28-.77-1.65-1.27-2.07-2.73-4.18-5.56-6.28-8.44-2.04-2.8-4.12-5.71-6.18-8.64-.42-.57-1.01-1.04-1.77-1.42-.74-.38-1.47-.57-2.18-.57h-2.18c-.72,0-1.34.26-1.85.76-.51.52-.76,1.14-.76,1.86v16.09c0,.61-.21,1.1-.63,1.52-.42.43-.92.63-1.53.63h-14.87c-.61,0-1.11-.21-1.53-.63-.42-.42-.63-.92-.63-1.52V41.18c0-.59.21-1.09.63-1.52.41-.41.92-.62,1.52-.62h30.89c3.8,0,7.35.65,10.54,1.92,3.21,1.28,5.97,3.08,8.21,5.36,2.24,2.27,4.03,5.01,5.32,8.16,1.27,3.13,1.91,6.64,1.91,10.44,0,2.08-.25,4.19-.73,6.25-.5,2.08-1.21,4.05-2.12,5.86-.93,1.85-2.02,3.52-3.25,4.97-1.22,1.45-2.64,2.69-4.21,3.67-.59.45-.97.97-1.14,1.58-.19.63-.06,1.26.39,1.85,2.43,3.2,5.1,6.65,7.94,10.23,2.77,3.48,5.27,6.73,7.45,9.63.35.47.44.96.26,1.51-.17.53-.51.78-1.06.78h-18.47ZM320.64,56.84c-.72,0-1.34.26-1.85.76-.51.52-.76,1.14-.76,1.86v10.53c0,.73.26,1.35.76,1.86.5.5,1.13.76,1.85.76h10.48c.81,0,1.64-.15,2.55-.45.87-.3,1.7-.79,2.45-1.44.75-.64,1.36-1.46,1.84-2.42.48-.97.72-2.11.72-3.39,0-.67-.12-1.47-.36-2.39-.23-.91-.63-1.78-1.22-2.65-.59-.87-1.38-1.6-2.35-2.16-.99-.58-2.21-.87-3.63-.87h-10.48Z" fill="#172540"/>
      <path d="M331.89,39.28c3.77,0,7.29.64,10.45,1.91,3.18,1.27,5.91,3.05,8.13,5.3,2.22,2.24,3.99,4.96,5.27,8.08,1.26,3.1,1.89,6.58,1.89,10.35,0,2.07-.24,4.15-.73,6.2-.49,2.06-1.2,4.01-2.1,5.81-.92,1.83-2,3.49-3.22,4.93-1.2,1.44-2.6,2.65-4.19,3.65-.62.47-1.02,1.03-1.21,1.69-.21.71-.07,1.41.43,2.07,2.43,3.2,5.1,6.64,7.95,10.24,2.76,3.47,5.26,6.71,7.44,9.63.3.4.38.82.23,1.3-.14.43-.39.61-.83.61h-18.47c-.6,0-1.25-.17-1.93-.5-.68-.32-1.21-.72-1.56-1.2-2.08-2.73-4.19-5.57-6.27-8.43-2.06-2.83-4.14-5.74-6.18-8.64-.44-.6-1.06-1.1-1.85-1.48-.78-.4-1.55-.6-2.29-.6h-2.18c-.79,0-1.47.28-2.02.83-.55.56-.83,1.24-.83,2.03v16.09c0,.54-.18.98-.56,1.35-.37.37-.81.56-1.36.56h-14.87c-.55,0-.98-.18-1.36-.56-.38-.38-.56-.82-.56-1.35V41.18c0-.52.18-.97.56-1.35.37-.37.81-.55,1.35-.55h30.89M320.65,72.85h10.48c.84,0,1.7-.15,2.63-.47.9-.31,1.75-.81,2.53-1.48.77-.66,1.41-1.5,1.9-2.49.5-1.01.75-2.18.75-3.49,0-.69-.12-1.51-.36-2.45-.24-.94-.65-1.83-1.26-2.73-.61-.9-1.42-1.65-2.43-2.24-1.03-.6-2.29-.91-3.75-.91h-10.48c-.79,0-1.47.28-2.02.83-.55.56-.83,1.24-.83,2.03v10.53c0,.8.28,1.48.83,2.03.55.55,1.23.83,2.02.83M331.89,38.8h-30.89c-.66,0-1.23.23-1.69.69-.46.47-.7,1.03-.7,1.69v67.94c0,.67.24,1.23.7,1.69s1.03.7,1.7.7h14.87c.67,0,1.24-.23,1.7-.7.47-.46.7-1.02.7-1.69v-16.09c0-.66.23-1.22.69-1.69.46-.46,1.02-.69,1.68-.69h2.18c.66,0,1.35.18,2.07.55.73.36,1.29.81,1.68,1.34,2.05,2.91,4.11,5.79,6.18,8.64,2.08,2.85,4.17,5.66,6.28,8.44.4.53.98.98,1.74,1.34.76.37,1.47.55,2.14.55h18.47c.66,0,1.09-.32,1.29-.95.2-.62.1-1.2-.3-1.73-2.18-2.92-4.66-6.13-7.45-9.64-2.78-3.51-5.43-6.92-7.94-10.23-.4-.53-.52-1.07-.35-1.64.16-.56.51-1.04,1.04-1.44,1.59-.99,3.02-2.23,4.27-3.72,1.26-1.49,2.35-3.17,3.28-5.02.93-1.85,1.64-3.82,2.14-5.91.49-2.08.74-4.19.74-6.31,0-3.84-.64-7.35-1.93-10.53-1.3-3.17-3.08-5.92-5.37-8.24-2.28-2.32-5.05-4.12-8.29-5.41-3.25-1.3-6.79-1.94-10.63-1.94h0ZM320.65,72.37c-.66,0-1.22-.23-1.68-.69-.46-.46-.69-1.03-.69-1.69v-10.53c0-.66.23-1.22.69-1.69.46-.46,1.02-.69,1.68-.69h10.48c1.38,0,2.55.28,3.51.84.96.56,1.71,1.26,2.27,2.09.56.83.96,1.68,1.19,2.58.23.89.35,1.67.35,2.33,0,1.26-.24,2.35-.7,3.28-.46.93-1.05,1.71-1.78,2.34-.72.62-1.51,1.09-2.37,1.39-.86.29-1.68.44-2.47.44h-10.48Z" fill="#182541"/>
    </g>
    <g>
      <path d="M393.56,111.27c-.61,0-1.21-.2-1.79-.61-.61-.42-1.06-.89-1.37-1.46l-29.99-67.62c-.3-.67-.32-1.25-.06-1.78.26-.51.76-.76,1.53-.76h16.19c.6,0,1.19.2,1.8.6.6.42,1.05.9,1.36,1.46l17.48,39.91c.38.7.89,1.04,1.51,1.04s1.13-.34,1.5-1.02l17.39-39.95c.3-.54.75-1.01,1.36-1.44.59-.4,1.2-.6,1.8-.6h16.49c.64,0,1.1.24,1.38.72.19.34.27.67.22.97-5.12,4.6-8.88,10.49-10.87,17.04-.07.16-.14.37-.2.6-.72,2.58-1.21,5.31-1.44,8.1l-.02.25v.55s.05,1.64.05,1.64l-17.96,40.3c-.3.55-.75,1.02-1.36,1.44-.6.41-1.19.61-1.8.61h-13.21Z" fill="#172540"/>
      <path d="M438.77,39.28c.56,0,.93.19,1.17.6.15.26.22.51.2.74-5.12,4.62-8.87,10.52-10.85,17.05-.08.2-.16.42-.22.64-.73,2.6-1.21,5.34-1.45,8.15l-.02.29v.55s.01.22.01.22c0,.08,0,.16,0,.24,0,.07,0,.13,0,.22v.23s.03.67.03.67l-17.92,40.21c-.29.53-.71.98-1.29,1.37-.56.38-1.1.57-1.67.57h-13.21c-.56,0-1.12-.19-1.66-.57-.57-.39-1-.84-1.27-1.34l-30-67.64c-.27-.6-.29-1.11-.06-1.57.14-.27.42-.63,1.31-.63h16.19c.55,0,1.1.18,1.65.55.58.4,1,.86,1.28,1.34l17.51,39.97c.52.95,1.22,1.15,1.71,1.15s1.19-.2,1.73-1.19l17.36-39.89c.29-.53.72-.98,1.29-1.37.56-.37,1.12-.56,1.67-.56h16.49M438.77,38.8h-16.49c-.66,0-1.31.22-1.94.64-.63.44-1.11.95-1.44,1.54l-17.38,39.93c-.33.6-.76.9-1.29.9s-.96-.3-1.29-.9l-17.49-39.93c-.33-.59-.81-1.1-1.44-1.54-.63-.42-1.27-.64-1.93-.64h-16.19c-.86,0-1.44.3-1.74.89-.3.6-.28,1.26.05,1.99l30,67.64c.33.6.81,1.11,1.44,1.54.62.43,1.27.65,1.93.65h13.21c.67,0,1.31-.22,1.94-.65.63-.43,1.11-.94,1.44-1.54l17.98-40.35c-.01-.33-.02-.67-.03-1.01,0-.15-.01-.29-.01-.44v-.24s-.01-.53-.01-.53l.02-.25c.23-2.79.71-5.49,1.43-8.06.06-.22.13-.42.2-.59,2-6.59,5.77-12.44,10.86-16.99.08-.39,0-.8-.24-1.22-.33-.56-.86-.84-1.59-.84h0Z" fill="#182541"/>
    </g>
    <g>
      <path d="M545.44,111.37c-6.63,0-12.44-.98-17.29-2.91-3.25-1.29-6.16-2.92-8.65-4.83l-.3-.81c.14-.91.15-1.77.03-2.56l-.13-.93c-.28-2.22-.74-6.99-.83-7.93,0,0-.05-.54-.06-.63v-.11s-.05-.4-.05-.4c-.6-4.39-3-8.34-6.59-10.89l-.49-.34-.58-.26c-.26-.12-.5-.26-.75-.43-.15-.11-.31-.23-.46-.36-1.78-1.55-2.72-3.97-2.52-6.47.32-3.88,1.24-7.64,2.73-11.17,1.9-4.45,4.54-8.38,7.85-11.69,3.31-3.31,7.22-5.96,11.65-7.89,4.43-1.93,9.22-2.91,14.25-2.91s9.85.98,14.3,2.91c4.44,1.92,8.38,4.58,11.71,7.89,3.31,3.32,5.94,7.25,7.84,11.69,1.9,4.46,2.86,9.27,2.86,14.32,0,3.14-.56,6.17-1.67,9-1.1,2.82-2.52,5.25-4.23,7.23-.52.71-.66,1.24-.47,1.62.19.37.66.55,1.45.55h4.5c.63,0,1.2.21,1.62.58.46.42.69.93.69,1.57v14c0,.64-.22,1.15-.68,1.57-.4.37-.96.58-1.57.58h-34.16ZM543.31,56.74c-2.4,0-4.68.47-6.78,1.41-2.12.95-3.99,2.25-5.57,3.87-1.59,1.63-2.86,3.56-3.77,5.73-.9,2.17-1.35,4.49-1.35,6.9s.45,4.71,1.35,6.84c.91,2.15,2.18,4.05,3.77,5.64,1.59,1.6,3.47,2.91,5.57,3.88,2.1.97,4.38,1.46,6.78,1.46s4.69-.49,6.79-1.46c2.09-.97,3.96-2.27,5.56-3.88,1.61-1.6,2.87-3.5,3.77-5.64.9-2.15,1.36-4.45,1.36-6.84s-.46-4.71-1.36-6.9c-.89-2.16-2.16-4.09-3.77-5.74-1.59-1.63-3.46-2.93-5.56-3.87-2.09-.94-4.38-1.41-6.79-1.41Z" fill="#172540"/>
      <path d="M543.26,38.09c5,0,9.78.97,14.21,2.89,4.42,1.91,8.33,4.55,11.63,7.84,3.28,3.29,5.9,7.2,7.79,11.62,1.89,4.43,2.84,9.21,2.84,14.22,0,3.11-.56,6.11-1.66,8.92-1.09,2.8-2.5,5.2-4.21,7.19-.21.28-.83,1.15-.47,1.86.35.68,1.34.68,1.66.68h4.51c.57,0,1.09.18,1.45.52.41.37.61.83.61,1.39v14c0,.56-.2,1.02-.6,1.4-.36.33-.86.51-1.41.51h-34.16c-6.6,0-12.38-.97-17.2-2.9-3.21-1.28-6.08-2.87-8.53-4.75l-.13-.35-.13-.34c.14-.91.14-1.77.02-2.57l-.03-.25c-.03-.19-.06-.42-.09-.67-.27-2.21-.74-6.99-.83-7.93l-.03-.29c0-.12-.02-.23-.03-.31v-.18s-.02-.11-.02-.11v-.14s-.04-.12-.04-.12v-.05c-.61-4.41-3.05-8.42-6.69-11.01l-.49-.34-.04-.03-.04-.02-.53-.24c-.25-.12-.48-.25-.71-.41-.15-.11-.3-.22-.44-.35-1.72-1.5-2.63-3.84-2.44-6.27.31-3.86,1.23-7.59,2.71-11.09,1.89-4.42,4.51-8.33,7.8-11.62,3.29-3.29,7.18-5.92,11.57-7.84,4.4-1.92,9.16-2.89,14.16-2.89M543.31,92.72c2.44,0,4.76-.5,6.89-1.48,2.12-.98,4.01-2.3,5.63-3.93,1.63-1.63,2.92-3.55,3.82-5.71.91-2.18,1.38-4.51,1.38-6.94s-.46-4.78-1.38-6.99c-.9-2.19-2.19-4.14-3.82-5.81-1.61-1.65-3.51-2.97-5.64-3.92-2.12-.95-4.44-1.43-6.89-1.43s-4.75.48-6.88,1.43c-2.14.96-4.04,2.28-5.65,3.92-1.61,1.65-2.9,3.61-3.82,5.81-.91,2.2-1.37,4.55-1.37,6.99s.46,4.77,1.37,6.94c.92,2.18,2.21,4.1,3.82,5.71,1.61,1.62,3.51,2.95,5.64,3.93,2.13.98,4.45,1.48,6.88,1.48M543.26,37.61c-5.1,0-9.88.98-14.35,2.93-4.47,1.95-8.38,4.6-11.72,7.94-3.35,3.35-5.98,7.27-7.9,11.77-1.51,3.56-2.43,7.31-2.75,11.24-.2,2.5.71,5.03,2.6,6.67.16.14.32.27.48.38.25.17.51.32.79.45l.54.24.49.34c3.52,2.5,5.89,6.39,6.48,10.68v.06s.04.14.04.14v.07l.02.14v.14c.01.08.02.19.03.32l.03.3c.14,1.45.57,5.84.83,7.94.06.4.1.72.13.93.13.79.11,1.65-.04,2.55.12.34.22.6.35.94,2.54,1.96,5.45,3.59,8.76,4.9,4.89,1.95,10.69,2.93,17.38,2.93h34.16c.63,0,1.27-.21,1.73-.64.51-.47.76-1.05.76-1.75v-14c0-.69-.25-1.28-.77-1.75-.48-.43-1.13-.64-1.78-.64h-4.51c-1.39,0-1.66-.59-.8-1.78,1.72-1.99,3.15-4.42,4.27-7.3,1.13-2.88,1.69-5.91,1.69-9.09,0-5.1-.96-9.9-2.88-14.41-1.92-4.5-4.55-8.42-7.89-11.77-3.35-3.34-7.27-5.99-11.78-7.94-4.5-1.95-9.3-2.93-14.4-2.93h0ZM543.31,92.24c-2.38,0-4.6-.48-6.68-1.44s-3.92-2.24-5.5-3.83c-1.59-1.59-2.82-3.44-3.72-5.56-.89-2.12-1.33-4.37-1.33-6.75s.44-4.65,1.33-6.81c.9-2.15,2.13-4.03,3.72-5.66,1.58-1.62,3.42-2.89,5.5-3.82,2.08-.93,4.3-1.39,6.68-1.39s4.61.46,6.69,1.39c2.08.93,3.91,2.2,5.49,3.82,1.59,1.63,2.83,3.51,3.72,5.66.89,2.16,1.34,4.42,1.34,6.81s-.45,4.63-1.34,6.75c-.89,2.12-2.13,3.97-3.72,5.56-1.58,1.59-3.41,2.87-5.49,3.83-2.08.96-4.31,1.44-6.69,1.44h0Z" fill="#182541"/>
    </g>
    <g>
      <path d="M623.26,112.46c-4.72,0-9.06-.75-12.9-2.21-3.84-1.47-7.18-3.57-9.94-6.26-2.74-2.68-4.89-5.96-6.38-9.76-1.5-3.77-2.26-8.05-2.26-12.72v-40.23c0-.6.2-1.09.62-1.52.42-.42.91-.62,1.51-.62h14.92c.6,0,1.09.2,1.51.62.42.43.62.92.62,1.52v40.23c0,2.6.43,4.79,1.27,6.52.84,1.71,1.9,3.07,3.16,4.05,1.25.98,2.6,1.68,4.02,2.08,1.45.4,2.71.6,3.86.6s2.41-.2,3.85-.6c1.42-.4,2.75-1.11,3.98-2.08,1.22-.98,2.27-2.34,3.11-4.05.85-1.72,1.27-3.91,1.27-6.52v-40.23c0-.6.2-1.09.62-1.52.42-.42.91-.62,1.51-.62h14.93c.59,0,1.08.2,1.51.62.42.42.62.92.62,1.52v40.23c0,4.63-.75,8.91-2.21,12.72-1.47,3.79-3.6,7.07-6.34,9.75-2.75,2.69-6.1,4.79-9.94,6.26-3.84,1.47-8.19,2.21-12.9,2.21Z" fill="#172540"/>
      <path d="M652.54,39.38c.52,0,.96.18,1.34.55.37.38.55.82.55,1.35v40.23c0,4.6-.74,8.85-2.2,12.64-1.45,3.76-3.57,7.01-6.29,9.67-2.73,2.66-6.05,4.75-9.86,6.21-3.82,1.46-8.13,2.2-12.82,2.2s-9-.74-12.82-2.2c-3.81-1.46-7.12-3.54-9.86-6.2-2.71-2.66-4.84-5.91-6.33-9.67-1.49-3.74-2.25-7.99-2.25-12.63v-40.23c0-.53.18-.97.55-1.35.37-.37.81-.55,1.34-.55h14.92c.53,0,.97.18,1.34.55.37.38.55.82.55,1.35v40.23c0,2.64.44,4.87,1.3,6.62.86,1.74,1.94,3.13,3.23,4.14,1.28,1,2.66,1.71,4.11,2.12,1.47.41,2.75.61,3.92.61s2.45-.2,3.92-.61c1.44-.41,2.81-1.13,4.06-2.13,1.25-1,2.31-2.39,3.17-4.13.86-1.76,1.3-3.98,1.3-6.62v-40.23c0-.53.18-.97.55-1.35.37-.37.81-.55,1.34-.55h14.93M652.54,38.9h-14.93c-.66,0-1.22.23-1.68.69-.46.47-.69,1.03-.69,1.69v40.23c0,2.58-.42,4.72-1.25,6.41-.83,1.69-1.84,3.01-3.04,3.97-1.2.96-2.49,1.64-3.89,2.04-1.4.39-2.66.59-3.79.59s-2.39-.2-3.79-.59c-1.4-.4-2.71-1.08-3.94-2.04-1.23-.96-2.26-2.28-3.09-3.97-.83-1.69-1.25-3.83-1.25-6.41v-40.23c0-.66-.23-1.22-.69-1.69-.46-.46-1.02-.69-1.68-.69h-14.92c-.66,0-1.22.23-1.68.69-.46.47-.69,1.03-.69,1.69v40.23c0,4.7.75,8.97,2.28,12.81,1.52,3.85,3.66,7.12,6.44,9.84,2.78,2.71,6.12,4.82,10.02,6.31,3.9,1.49,8.23,2.23,12.99,2.23s9.09-.74,12.99-2.23c3.9-1.49,7.24-3.6,10.02-6.31,2.78-2.72,4.91-5.99,6.4-9.84,1.48-3.84,2.23-8.11,2.23-12.81v-40.23c0-.66-.23-1.22-.69-1.69-.47-.46-1.03-.69-1.68-.69h0Z" fill="#182541"/>
    </g>
    <g>
      <path d="M672.97,111.27c-.66,0-1.17-.2-1.55-.62-.39-.42-.58-.92-.58-1.53V41.28c0-.59.19-1.09.58-1.53.38-.4.9-.61,1.55-.61h14.93c.6,0,1.09.2,1.51.62.42.43.62.92.62,1.52v67.84c0,.61-.2,1.1-.62,1.52-.42.42-.91.63-1.51.63h-14.93Z" fill="#172540"/>
      <path d="M687.9,39.38c.53,0,.97.18,1.34.55.37.38.55.82.55,1.35v67.84c0,.54-.18.98-.55,1.35-.37.37-.8.56-1.34.56h-14.93c-.59,0-1.04-.18-1.38-.54-.35-.38-.51-.83-.51-1.37V41.28c0-.53.17-.98.51-1.36.34-.36.79-.54,1.38-.54h14.93M687.9,38.9h-14.93c-.72,0-1.3.23-1.73.69-.42.47-.64,1.03-.64,1.69v67.84c0,.67.22,1.23.64,1.69.43.47,1.01.7,1.73.7h14.93c.66,0,1.22-.23,1.68-.7.46-.46.69-1.02.69-1.69V41.28c0-.66-.23-1.22-.69-1.69-.46-.46-1.02-.69-1.68-.69h0Z" fill="#182541"/>
    </g>
  </g>
  <g>
    <g>
      <path d="M463.32,26.73c3.32,0,5.67.45,5.74,1.19.07.85-2.88,1.81-6.94,2.35-.56.07-.96.58-.91,1.14.04.5.43.9.92.96,2.38.27,4.3,1.52,4.89,3.27.13.39.49.65.9.69,14.34,1.24,25.95,12.06,28.36,26.02,0,.02,0,.04,0,.06,0,.05,0,.12.03.19.02.14.05.34.09.57,0,.08.03.16.04.25,0,0,0,.02,0,.03.62,3.58,3.01,14.58,9.19,18.95.57.39,1.16.74,1.8,1.02,2.13,1.51,3.63,3.87,4.01,6.6,0,0,0,.04,0,.1,0,.14.04.43.08.83.18,1.86.6,6.08.86,8.17.07.47.12.83.15,1.03.28,1.4-2.38,15.43-43.75,19.56-4.73.47-8.91.68-12.63.68-28.61,0-29.11-12.42-29.11-13.29v-7.7c0-2.86,1.23-5.41,3.19-7.2l.02-.02c.15-.14.3-.27.45-.4.06-.05.12-.11.17-.17,1.03-1.4,2.91-6.09,2.76-21.67,0-1.03-.03-2.11-.06-3.23,0-.25,0-.5-.02-.76-.08-2.83.38-5.17,1.3-7.09,2.8-9.51,9.95-17.15,19.15-20.62-.02-.08-.03-.15-.04-.24-.26-2.15,1.45-4.2,4.07-5.14.44-.16.72-.61.68-1.08v-.15c-.06-.55-.52-.97-1.06-.97-.01,0-.03,0-.04,0-.52.02-1.02.03-1.5.03-3.32,0-5.68-.44-5.74-1.19-.09-1,4.03-2.16,9.18-2.6,1.33-.11,2.6-.17,3.76-.17M463.32,24.81h0c-1.25,0-2.57.06-3.92.18-2.55.21-8.67.93-10.34,2.91-.43.51-.64,1.14-.59,1.77.15,1.85,2.01,2.75,6.14,2.92-1.46,1.18-2.37,2.72-2.55,4.37-9.11,3.88-16.15,11.71-18.99,21.22-1.02,2.22-1.5,4.85-1.42,7.83,0,.14,0,.25,0,.36,0,.14,0,.28.01.42.03,1.09.05,2.16.06,3.17.14,15.54-1.79,19.6-2.33,20.42-.1.09-.19.17-.29.26l-.12.11-.04.04-.03.03c-2.44,2.24-3.78,5.29-3.78,8.59v7.7c0,1.56.87,15.21,31.04,15.21,3.92,0,8.23-.23,12.82-.69,28.17-2.81,39.08-10.14,43.26-15.79,1.85-2.49,2.43-4.84,2.19-6.06-.02-.13-.06-.36-.1-.67l-.04-.26c-.25-2.03-.67-6.27-.85-8.09v-.14c-.04-.29-.06-.51-.07-.63v-.03s0-.13,0-.13l-.03-.07c-.44-3.18-2.19-6.06-4.8-7.91l-.16-.11-.18-.08c-.49-.22-.97-.49-1.47-.84-5.52-3.9-7.77-14.21-8.36-17.54v-.63l-.13-.13c0-.06-.02-.12-.02-.17v-.09s-.01-.3-.01-.3l-.08-.15c-2.64-14.66-14.71-25.82-29.52-27.34-.55-1.19-1.51-2.19-2.76-2.9,4.65-1.07,5.22-2.56,5.11-3.81-.18-2.07-2.47-2.95-7.65-2.95h0Z" display="none" fill="#fff"/>
      <line x1="468.34" y1="89.74" x2="469.81" y2="106.76" fill="none" stroke="#182541" stroke-miterlimit="10" stroke-width="10"/>
      <path d="M505.73,82.45c-6.6,5.63-18.95,14.01-35.92,16.29-21.88,2.95-35.11-4.62-38.88-7.2.91-1.3,2.49-5.24,2.7-17.16v-.04c.03-1.36.03-2.83.02-4.41-.01-1.03-.03-2.11-.06-3.23-.01-.24-.01-.47-.02-.72v-.04c.21-2.51.63-4.8,1.22-6.91.02-.07.05-.13.08-.19,2.21-7.52,7.15-13.87,13.67-17.91.26-.16.52-.32.79-.47.18-.11.36-.21.54-.31.28-.16.56-.31.84-.45.29-.15.57-.29.86-.43.8-.38,1.61-.72,2.45-1.04,0-.02-.01-.03-.01-.05-.01-.06-.02-.13-.03-.19-.26-2.15,1.45-4.21,4.06-5.15.45-.16.72-.6.68-1.07v-.15c-.06-.56-.54-.99-1.1-.97-4.08.15-7.16-.31-7.24-1.16-.08-1,4.03-2.16,9.18-2.6,5.17-.44,9.41.02,9.5,1.02.07.85-2.88,1.82-6.94,2.35-.53.08-.91.52-.91,1.05v.09c.04.5.43.9.92.96,2.38.27,4.3,1.52,4.89,3.27.14.39.5.66.91.69,14.34,1.24,25.94,12.06,28.36,26.02,0,.02,0,.04.01.06,0,.05,0,.12.03.19.02.15.05.34.09.57,0,.08.03.16.03.25.01.01.01.02.01.03.63,3.57,3.01,14.58,9.19,18.95.03.02.05.04.08.06Z" fill="#172540"/>
      <g>
        <g>
          <path d="M505.73,82.45c-6.6,5.63-18.95,14.01-35.92,16.29-11.69,1.58-20.91.15-27.53-1.92,2.43-.41,5.53-.33,9.22-.07,10.78.75,28.83-2.88,44.21-12.49-14.04,6.83-33.89,13.45-50.94,4.8-17.05-8.65-5.21-44.53,12.93-49.67,18.56-5.25,32.94,6.67,36.09,16.03,2.22,6.61,3.59,11.88,4.88,15.99.69,2.21.09,4.61-1.58,6.21-2.23,2.13-5.62,4.51-10.67,7.09,5.11-1.77,8.99-3.82,12.09-5.3,1.47-.7,3.24-.38,4.32.84.79.9,1.71,1.61,2.82,2.14" fill="#ec6725"/>
          <path d="M505.73,82.45c-6.6,5.63-18.95,14.01-35.92,16.29-21.88,2.95-35.11-4.62-38.88-7.2.91-1.3,2.49-5.24,2.7-17.16v-.04c.03-1.36.03-2.83.02-4.41-.01-1.03-.03-2.11-.06-3.23-.01-.24-.01-.47-.02-.72v-.04c.21-2.51.63-4.8,1.22-6.91.02-.07.05-.13.08-.19,2.21-7.52,7.15-13.87,13.67-17.91.26-.16.52-.32.79-.47.18-.11.36-.21.54-.31.28-.16.56-.31.84-.45.29-.15.57-.29.86-.43.8-.38,1.61-.72,2.45-1.04,0-.02-.01-.03-.01-.05-.01-.06-.02-.13-.03-.19-.26-2.15,1.45-4.21,4.06-5.15.45-.16.72-.6.68-1.07v-.15c-.06-.56-.54-.99-1.1-.97-4.08.15-7.16-.31-7.24-1.16-.08-1,4.03-2.16,9.18-2.6,5.17-.44,9.41.02,9.5,1.02.07.85-2.88,1.82-6.94,2.35-.53.08-.91.52-.91,1.05v.09c.04.5.43.9.92.96,2.38.27,4.3,1.52,4.89,3.27.14.39.5.66.91.69,14.34,1.24,25.94,12.06,28.36,26.02,0,.02,0,.04.01.06,0,.05,0,.12.03.19.02.15.05.34.09.57,0,.08.03.16.03.25.01.01.01.02.01.03.63,3.57,3.01,14.58,9.19,18.95.03.02.05.04.08.06Z" fill="none"/>
        </g>
        <path d="M505.73,82.45c-6.6,5.63-18.95,14.01-35.92,16.29-21.88,2.95-35.11-4.62-38.88-7.2.91-1.3,2.49-5.24,2.7-17.16v-.04c.03-1.36.03-2.83.02-4.41-.01-1.03-.03-2.11-.06-3.23-.01-.24-.01-.47-.02-.72v-.04c.21-2.51.63-4.8,1.22-6.91.02-.07.05-.13.08-.19,2.21-7.52,7.15-13.87,13.67-17.91.26-.16.52-.32.79-.47.18-.11.36-.21.54-.31.28-.16.56-.31.84-.45.29-.15.57-.29.86-.43.8-.38,1.61-.72,2.45-1.04,0-.02-.01-.03-.01-.05-.01-.06-.02-.13-.03-.19-.26-2.15,1.45-4.21,4.06-5.15.45-.16.72-.6.68-1.07v-.15c-.06-.56-.54-.99-1.1-.97-4.08.15-7.16-.31-7.24-1.16-.08-1,4.03-2.16,9.18-2.6,5.17-.44,9.41.02,9.5,1.02.07.85-2.88,1.82-6.94,2.35-.53.08-.91.52-.91,1.05v.09c.04.5.43.9.92.96,2.38.27,4.3,1.52,4.89,3.27.14.39.5.66.91.69,14.34,1.24,25.94,12.06,28.36,26.02,0,.02,0,.04.01.06,0,.05,0,.12.03.19.02.15.05.34.09.57,0,.08.03.16.03.25.01.01.01.02.01.03.63,3.57,3.01,14.58,9.19,18.95.03.02.05.04.08.06Z" fill="none" stroke="#182541" stroke-miterlimit="10"/>
        <path d="M458.3,33.49s1.76-1.19,4.51-.36,3.48,2.8,3.48,2.8c0,0-6.82-.14-10.2,1.5,4.33-2.12,2.21-3.95,2.21-3.95Z" fill="#ec6725"/>
        <ellipse cx="459.72" cy="28.44" rx="8.29" ry="1.07" transform="translate(-.72 40.51) rotate(-5.04)" fill="#ec6725"/>
        <path d="M467.6,40.2c3.94-.62,8.07.68,11.42,2.95,10.03,7.02,13.64,19.61,16.67,30.86.01.1.12.56.13.67.3,1.48-.93,3.04-2.51,3-1.59.05-2.67-1.56-2.54-2.58,0-.19-.07-.78-.09-.98-1.52-10.71-3.88-22.56-12.4-29.98-2.95-2.46-6.76-4.15-10.68-3.93h0Z" fill="#fff"/>
      </g>
    </g>
    <path d="M418.74,101.35" fill="#ec6725" stroke="#182541" stroke-miterlimit="10" stroke-width="2"/>
    <path d="M468.74,123.69c-43.33,4.32-44-12.26-44-13.29v-8.12c0-3.03,1.3-5.7,3.36-7.59l.02-.02c.16-.15.31-.28.47-.42.06-.06.13-.12.18-.19.01-.02.02-.03.04-.05,3.97,2.72,17.92,10.7,40.99,7.59,17.89-2.4,30.91-11.24,37.87-17.17.58.39,1.18.73,1.81,1.01,2.25,1.59,3.83,4.09,4.23,6.97,0,0,0,.03.01.09.01.16.04.45.08.87.19,1.96.62,6.41.9,8.61.07.5.13.86.16,1.09.3,1.48-2.51,16.26-46.12,20.62Z" fill="#182541"/>
    <path d="M430.82,102.89c18.64,10.33,51.46,5.38,69.45-4.89,3.01-1.66,5.91-3.54,8.52-5.79-5.04,4.74-11.22,8.16-17.58,10.82-16.8,6.94-44.45,9.95-60.4-.14h0Z" fill="#ec6725"/>
  </g>
</svg>